<?xml version="1.0" encoding="UTF-8" standalone="no"?>
<svg
   viewBox="0 0 260.93 208.43"
   version="1.1"
   id="svg2735"
   sodipodi:docname="saltstack-open.svg"
   inkscape:version="1.2.2 (b0a8486541, 2022-12-01)"
   xml:space="preserve"
   xmlns:inkscape="http://www.inkscape.org/namespaces/inkscape"
   xmlns:sodipodi="http://sodipodi.sourceforge.net/DTD/sodipodi-0.dtd"
   xmlns="http://www.w3.org/2000/svg"
   xmlns:svg="http://www.w3.org/2000/svg"><defs
     id="defs2739"><clipPath
       clipPathUnits="userSpaceOnUse"
       id="clipPath4867"><rect
         style="opacity:0.65;fill:#75bed5;fill-opacity:1;stroke-width:0.838825"
         id="rect4869"
         width="146.13229"
         height="126.26661"
         x="-179.27129"
         y="336.04327" /></clipPath></defs><sodipodi:namedview
     id="namedview2737"
     pagecolor="#505050"
     bordercolor="#ffffff"
     borderopacity="1"
     inkscape:showpageshadow="0"
     inkscape:pageopacity="0"
     inkscape:pagecheckerboard="1"
     inkscape:deskcolor="#505050"
     showgrid="false"
     inkscape:zoom="2.6529651"
     inkscape:cx="73.314194"
     inkscape:cy="87.072384"
     inkscape:window-width="1920"
     inkscape:window-height="1043"
     inkscape:window-x="0"
     inkscape:window-y="0"
     inkscape:window-maximized="1"
     inkscape:current-layer="svg2735" /><path
     d="M234.88 20.89H130.66L104.21 0H26.05A25.94 25.94 0 00.13 26.05L0 182.37a26 26 0 0026.05 26.05h208.43a26 26 0 0026.05-26.05l.4-135.43a26 26 0 00-26.05-26.05zm-.4 161.48H26.05l.4-135.43h208.43z"
     fill="#42a5f5"
     data-name="Calque 2"
     id="path2733"
     style="fill:#11beac;fill-opacity:1"
     inkscape:label="folder" /><path
     style="display:inline;opacity:1;fill:#11beac;fill-opacity:1;stroke-width:0.347187"
     d="m 74.866471,149.22679 v -34.71583 l 20.209832,-0.0897 20.209847,-0.0896 20.48619,-35.499788 20.4862,-35.499786 h 40.19835 40.19834 v 34.545025 34.545019 h -20.23431 -20.23431 l -2.1085,3.38506 c -2.11821,3.40062 -18.22135,31.0998 -32.09108,55.20017 l -7.44133,12.93026 -39.83962,0.002 -39.839609,0.002 z"
     id="path21733"
     inkscape:label="logo" /></svg>
