<?xml version="1.0" encoding="UTF-8" standalone="no"?>
<svg
   viewBox="0 0 260.73 208.59"
   version="1.1"
   id="svg9018"
   sodipodi:docname="saltstack.svg"
   inkscape:version="1.2.2 (b0a8486541, 2022-12-01)"
   xmlns:inkscape="http://www.inkscape.org/namespaces/inkscape"
   xmlns:sodipodi="http://sodipodi.sourceforge.net/DTD/sodipodi-0.dtd"
   xmlns="http://www.w3.org/2000/svg"
   xmlns:svg="http://www.w3.org/2000/svg">
  <defs
     id="defs9022">
    <clipPath
       clipPathUnits="userSpaceOnUse"
       id="clipPath4867">
      <rect
         style="opacity:0.65;fill:#75bed5;fill-opacity:1;stroke-width:0.838825"
         id="rect4869"
         width="146.13229"
         height="126.26661"
         x="-179.27129"
         y="336.04327" />
    </clipPath>
    <clipPath
       clipPathUnits="userSpaceOnUse"
       id="clipPath4867-2">
      <rect
         style="opacity:0.65;fill:#75bed5;fill-opacity:1;stroke-width:0.838825"
         id="rect4869-0"
         width="146.13229"
         height="126.26661"
         x="-179.27129"
         y="336.04327" />
    </clipPath>
  </defs>
  <sodipodi:namedview
     id="namedview9020"
     pagecolor="#505050"
     bordercolor="#ffffff"
     borderopacity="1"
     inkscape:showpageshadow="0"
     inkscape:pageopacity="0"
     inkscape:pagecheckerboard="1"
     inkscape:deskcolor="#505050"
     showgrid="false"
     inkscape:zoom="2.6509301"
     inkscape:cx="139.38504"
     inkscape:cy="135.42417"
     inkscape:window-width="1920"
     inkscape:window-height="1011"
     inkscape:window-x="0"
     inkscape:window-y="0"
     inkscape:window-maximized="1"
     inkscape:current-layer="svg9018" />
  <path
     id="path9016"
     style="fill:#11beac;fill-opacity:1"
     inkscape:label="folder"
     d="M 26.070312 0 A 26 26 0 0 0 0.13085938 26.070312 L 0 182.50977 A 26.06 26.06 0 0 0 26.070312 208.58008 L 234.66016 208.58008 A 26.06 26.06 0 0 0 260.73047 182.50977 L 260.73047 47 A 26.07 26.07 0 0 0 234.66016 20.929688 L 130.36914 20.929688 C 131.09914 20.909688 104.56906 3.5527101e-15 104.28906 0 L 26.070312 0 z M 156.25781 43.332031 L 196.45703 43.332031 L 236.6543 43.332031 L 236.6543 77.876953 L 236.6543 112.42188 L 216.41992 112.42188 L 196.18555 112.42188 L 194.07812 115.80664 C 191.95991 119.20726 175.85606 146.90747 161.98633 171.00781 L 154.54492 183.9375 L 114.70508 183.93945 L 74.865234 183.94141 L 74.865234 149.22656 L 74.865234 114.51172 L 95.076172 114.42188 L 115.28516 114.33203 L 135.77148 78.832031 L 156.25781 43.332031 z " />
</svg>
